<svg width="26" height="26" viewBox="0 0 26 26" fill="none" xmlns="http://www.w3.org/2000/svg">
<path fill-rule="evenodd" clip-rule="evenodd" d="M13 26C20.1797 26 26 20.1797 26 13C26 5.8203 20.1797 0 13 0C5.8203 0 0 5.8203 0 13C0 20.1797 5.8203 26 13 26Z" fill="#333333"/>
<path fill-rule="evenodd" clip-rule="evenodd" d="M6.5 9.44753V16.8089C6.5 17.2094 6.79313 17.5339 7.19697 17.5339H18.6856C19.089 17.5339 19.3826 17.2056 19.3826 16.8089V9.44753C19.3826 9.00804 19.1201 8.66669 18.6856 8.66669H7.19697C6.74574 8.66669 6.5 9.01643 6.5 9.44753ZM7.55929 10.0887C7.55929 9.91133 7.66665 9.80985 7.83816 9.80985C7.94426 9.80985 12.1189 12.4551 12.3718 12.6103L13.0252 13.0167C13.2323 12.8778 13.4403 12.7592 13.655 12.6153C14.0933 12.3352 17.9924 9.80985 18.0998 9.80985C18.2717 9.80985 18.3786 9.91133 18.3786 10.0887C18.3786 10.2766 18.0167 10.4632 17.7811 10.607C16.3003 11.5095 14.82 12.4933 13.3539 13.4293C13.2684 13.4872 13.1027 13.6109 12.9786 13.592C12.8402 13.5706 8.59216 10.8415 7.81929 10.3869C7.70313 10.3185 7.55929 10.256 7.55929 10.0887Z" fill="white"/>
</svg>
