<svg width="26" height="26" viewBox="0 0 26 26" fill="none" xmlns="http://www.w3.org/2000/svg">
<g clip-path="url(#clip0_16_861)">
<path fill-rule="evenodd" clip-rule="evenodd" d="M13 26C20.1797 26 26 20.1797 26 13C26 5.8203 20.1797 0 13 0C5.8203 0 0 5.8203 0 13C0 20.1797 5.8203 26 13 26Z" fill="#333333"/>
<path d="M13.0002 6.5C10.7692 6.5 8.96143 8.31797 8.96143 10.5625C8.96143 14.4422 13.0002 19.5 13.0002 19.5C13.0002 19.5 17.039 14.4422 17.039 10.5625C17.039 8.31797 15.2312 6.5 13.0002 6.5ZM13.0002 12.5328C11.944 12.5328 11.0909 11.6729 11.0909 10.6133C11.0909 9.55365 11.9474 8.69036 13.0002 8.69036C14.0565 8.69036 14.9096 9.55026 14.9096 10.6133C14.9096 11.6729 14.0565 12.5328 13.0002 12.5328Z" fill="white"/>
</g>
<defs>
<clipPath id="clip0_16_861">
<rect width="26" height="26" fill="white"/>
</clipPath>
</defs>
</svg>
