<svg width="26" height="26" viewBox="0 0 26 26" fill="none" xmlns="http://www.w3.org/2000/svg">
<g clip-path="url(#clip0_16_869)">
<path fill-rule="evenodd" clip-rule="evenodd" d="M13 26C20.1797 26 26 20.1797 26 13C26 5.8203 20.1797 0 13 0C5.8203 0 0 5.8203 0 13C0 20.1797 5.8203 26 13 26Z" fill="#333333"/>
<path d="M18.4136 15.6914C17.9194 15.1836 16.5144 14.2323 15.5936 14.2323C15.3803 14.2323 15.1941 14.2797 15.0418 14.3779C14.5915 14.6656 14.2326 14.8891 14.06 14.8891C13.9652 14.8891 13.8636 14.8044 13.6402 14.6115L13.603 14.5776C12.9834 14.0393 12.8514 13.9005 12.611 13.65L12.5501 13.5857C12.5061 13.5417 12.4688 13.501 12.4316 13.4638C12.2217 13.2471 12.0694 13.0914 11.5311 12.482L11.5074 12.4549C11.2501 12.1638 11.0808 11.9742 11.0707 11.8354C11.0605 11.7 11.179 11.4799 11.4803 11.0703C11.8459 10.576 11.8595 9.96666 11.5243 9.25911C11.2569 8.70051 10.8201 8.16562 10.4342 7.69504L10.4003 7.65442C10.0686 7.24817 9.68264 7.04504 9.25269 7.04504C8.77535 7.04504 8.37925 7.30234 8.16936 7.43775C8.15243 7.44791 8.1355 7.46145 8.11858 7.47161C7.648 7.76952 7.30608 8.17916 7.17743 8.59556C6.98446 9.22187 6.85582 10.0344 7.78003 11.7237C8.57899 13.1862 9.30347 14.168 10.4545 15.3495C11.5378 16.4599 12.0186 16.8187 13.0951 17.5974C14.2936 18.4641 15.4446 18.9617 16.2503 18.9617C16.9985 18.9617 17.5876 18.9617 18.4272 17.9495C19.3074 16.8865 18.9418 16.2365 18.4136 15.6914Z" fill="white"/>
</g>
<defs>
<clipPath id="clip0_16_869">
<rect width="26" height="26" fill="white"/>
</clipPath>
</defs>
</svg>
