<svg width="26" height="26" viewBox="0 0 26 26" fill="none" xmlns="http://www.w3.org/2000/svg">
<path d="M19.4998 10.8333C19.5032 8.87452 18.8429 6.97234 17.6266 5.43691C16.4103 3.90148 14.7097 2.82337 12.8021 2.37836C10.8945 1.93335 8.89244 2.14768 7.12227 2.98641C5.3521 3.82513 3.91827 5.23879 3.05455 6.99689C2.19082 8.755 1.94814 10.7538 2.36608 12.6676C2.78402 14.5813 3.83792 16.2969 5.35596 17.5349C6.874 18.7728 8.76663 19.46 10.7253 19.4844C12.684 19.5088 14.5931 18.8689 16.1415 17.6692L23.0748 24.6025L24.6023 23.075L17.669 16.1417C18.8515 14.6244 19.4956 12.7569 19.4998 10.8333ZM10.8332 17.3333C9.54759 17.3333 8.29088 16.9521 7.22196 16.2379C6.15304 15.5237 5.31992 14.5085 4.82795 13.3208C4.33598 12.1331 4.20726 10.8261 4.45806 9.56524C4.70887 8.30437 5.32793 7.14618 6.23697 6.23714C7.14601 5.32809 8.3042 4.70903 9.56508 4.45823C10.826 4.20742 12.1329 4.33614 13.3206 4.82811C14.5083 5.32008 15.5235 6.1532 16.2377 7.22212C16.9519 8.29104 17.3332 9.54775 17.3332 10.8333C17.3332 12.5572 16.6483 14.2105 15.4294 15.4295C14.2104 16.6485 12.5571 17.3333 10.8332 17.3333Z" fill="#333333"/>
</svg>
